# xmcd
#
# Track frame offsets:
#	150
#	1512
#	4012
#	6500
#	9075
#	11950
#	16800
#	19312
#	21750
#	22875
#	25312
#	32287
#	34687
#	46667
#	51412
#
# Disc length: 753 seconds
#
# Revision: 1
# Processed by: cddbd v1.5.1PL0 Copyright (c) Steve Scherf et al.
# Submitted via: CDex 1.50Beta5
#
DISCID=9302ef0f
DTITLE=山下達郎 - CM Collection vol.1
DYEAR=1900
DGENRE=Rock
TTITLE0=三愛バーゲンフェスティヴァル’74
TTITLE1=三ツ矢フルーツソーダ’74
TTITLE2=不二家ハートチョコレート’74
TTITLE3=まきまきカール’75
TTITLE4=いちじく浣腸’75
TTITLE5=三ツ矢サイダー’76
TTITLE6=資生堂フェリーク’77
TTITLE7=ハウスみぞれっ子’78
TTITLE8=TRIO FM時報'78
TTITLE9=JAL 沖縄
TTITLE10=コカコーラ’79
TTITLE11=ハウスみぞれっ子&シャービック’79
TTITLE12=サウンズ・ウィズ・コーク テーマ’82
TTITLE13=サントリーギフト’83
TTITLE14=三ツ矢サイダー’76(’94ライブ)
EXTD=
EXTT0=
EXTT1=
EXTT2=
EXTT3=
EXTT4=
EXTT5=
EXTT6=
EXTT7=
EXTT8=
EXTT9=
EXTT10=
EXTT11=
EXTT12=
EXTT13=
EXTT14=
PLAYORDER=
